<svg width="37" height="28" viewBox="0 0 37 28" fill="none" xmlns="http://www.w3.org/2000/svg">
<path d="M17.1153 7.77778L17.1531 7C17.1531 6.19578 17.0518 5.41644 16.8796 4.66667H25.9345L25.0823 7.77778H17.1153V7.77778ZM13.3758 23.3333C12.1248 23.3333 11.1094 24.3787 11.1094 25.6667C11.1094 26.9562 12.1248 28 13.3758 28C14.6268 28 15.6422 26.9562 15.6422 25.6667C15.6422 24.3787 14.6268 23.3333 13.3758 23.3333ZM30.4566 0L25.2712 18.6667H9.51543L8.82796 16.982C8.33994 17.0582 7.84134 17.1111 7.33216 17.1111C6.71723 17.1111 6.11588 17.0458 5.53267 16.9338L7.50592 21.7778H27.5088L32.7577 3.11111H35.6723L36.7949 0H30.4566V0ZM20.9303 23.3333C19.6793 23.3333 18.664 24.3771 18.664 25.6667C18.664 26.9562 19.6793 28 20.9303 28C22.1814 28 23.1967 26.9562 23.1967 25.6667C23.1967 24.3787 22.1814 23.3333 20.9303 23.3333ZM14.1312 7C14.1312 10.8656 11.0822 14 7.33216 14C3.57907 14 0.533081 10.8656 0.533081 7C0.533081 3.13444 3.57907 0 7.33216 0C11.0822 0 14.1312 3.13444 14.1312 7ZM11.1094 6.22222H8.08762V3.11111H6.57671V6.22222H3.5549V7.77778H6.57671V10.8889H8.08762V7.77778H11.1094V6.22222Z" fill="white"/>
</svg>
